<?xml version="1.0" encoding="utf-8"?>
<!-- Generator: Adobe Illustrator 19.2.1, SVG Export Plug-In . SVG Version: 6.00 Build 0)  -->
<svg version="1.1"
	 id="Layer_1" xmlns:cc="http://creativecommons.org/ns#" xmlns:dc="http://purl.org/dc/elements/1.1/" xmlns:inkscape="http://www.inkscape.org/namespaces/inkscape" xmlns:rdf="http://www.w3.org/1999/02/22-rdf-syntax-ns#" xmlns:sodipodi="http://sodipodi.sourceforge.net/DTD/sodipodi-0.dtd" xmlns:svg="http://www.w3.org/2000/svg"
	 xmlns="http://www.w3.org/2000/svg" xmlns:xlink="http://www.w3.org/1999/xlink" x="0px" y="0px" viewBox="0 0 100 125"
	 style="enable-background:new 0 0 100 125;" xml:space="preserve">
<g transform="translate(0,-952.36218)">
	<path d="M7.8,968.4c-1,0.1-1.8,1-1.8,2v52c0,1.1,0.9,2,2,2h50c1.1,0,2-0.9,2-2s-0.9-2-2-2c0,0,0,0-0.1,0H10v-9l18.9-14.4l14.8,12.9
		c0.7,0.6,1.7,0.6,2.5,0.1l8.8-6.1l9.8,8c0.8,0.7,2.1,0.6,2.8-0.2c0.7-0.8,0.6-2.2-0.2-2.8l-11-9c-0.7-0.6-1.7-0.6-2.4-0.1l-8.7,6.1
		l-14.8-13c-0.4-0.3-0.9-0.5-1.5-0.5c-0.4,0-0.8,0.2-1.1,0.4L10,1006.3v-34h68v28c0,1.1,0.9,2,2,2c1.1,0,2-0.9,2-2c0,0,0,0,0-0.1
		v-30c0-1.1-0.9-2-2-2H8C7.9,968.4,7.9,968.4,7.8,968.4z M48,978.4c-4.9,0-9,4.1-9,9c0,4.9,4.1,9,9,9s9-4.1,9-9
		C57,982.4,52.9,978.4,48,978.4z M47.5,982.4c0.2,0,0.3,0,0.5,0c2.8,0,5,2.2,5,5s-2.2,5-5,5s-5-2.2-5-5
		C43,984.8,45,982.6,47.5,982.4z M79.8,1008.3c-1,0.1-1.8,1-1.8,2v10H68c-0.1,0-0.1,0-0.2,0c-1.1,0.1-2,1-1.9,2.1s1,2,2.1,1.9h10v10
		c0,1.1,0.9,2,2,2c1.1,0,2-0.9,2-2c0,0,0,0,0-0.1v-10h10c1.1,0,2-0.9,2-2c0-1.1-0.9-2-2-2c0,0,0,0-0.1,0H82v-10c0-1.1-0.9-2-2-2
		C80,1008.3,79.9,1008.3,79.8,1008.3z"/>
</g>
</svg>
