<?xml version="1.0" encoding="utf-8"?>
<!-- Generator: Adobe Illustrator 19.2.1, SVG Export Plug-In . SVG Version: 6.00 Build 0)  -->
<svg version="1.1"
	 id="Layer_1" xmlns:cc="http://creativecommons.org/ns#" xmlns:dc="http://purl.org/dc/elements/1.1/" xmlns:inkscape="http://www.inkscape.org/namespaces/inkscape" xmlns:rdf="http://www.w3.org/1999/02/22-rdf-syntax-ns#" xmlns:sodipodi="http://sodipodi.sourceforge.net/DTD/sodipodi-0.dtd" xmlns:svg="http://www.w3.org/2000/svg"
	 xmlns="http://www.w3.org/2000/svg" xmlns:xlink="http://www.w3.org/1999/xlink" x="0px" y="0px" viewBox="0 0 100 99.2"
	 style="enable-background:new 0 0 100 99.2;" xml:space="preserve">
<g transform="translate(0,-952.36218)">
	<path d="M36,968.5c-2.2,0-4,1.8-4,4v34c0,2.2,1.8,4,4,4h56c2.2,0,4-1.8,4-4v-34c0-2.2-1.8-4-4-4H36z M39.4,972.5h49.2L64,993.8
		L39.4,972.5z M36,974.8L52.4,989L36,1003.9V974.8z M92,974.8v29.2L75.6,989L92,974.8z M6,975.5c-1.1,0-2,0.9-2,2s0.9,2,2,2h20
		c1.1,0,2-0.9,2-2s-0.9-2-2-2H6z M10,987.5c-1.1,0-2,0.9-2,2s0.9,2,2,2h16c1.1,0,2-0.9,2-2s-0.9-2-2-2H10z M55.4,991.7l7.2,6.3
		c0.8,0.7,1.9,0.7,2.6,0l7.2-6.3l16.3,14.8H39.2C39.2,1006.5,55.4,991.7,55.4,991.7z M14,999.5c-1.1,0-2,0.9-2,2s0.9,2,2,2h12
		c1.1,0,2-0.9,2-2s-0.9-2-2-2H14z"/>
</g>
</svg>
